# xmcd
#
# Track frame offsets:
#	150
#	13427
#	24440
#	35885
#	47417
#	59721
#	71632
#	82416
#	97147
#	110498
#	121272
#	133132
#	145131
#	157437
#	169179
#	193489
#
# Disc length: 2594 seconds
#
# Revision: 2
# Processed by: cddbd v1.5.2PL0 Copyright (c) Steve Scherf et al.
# Submitted via: audiograbber 1.83.01
#
DISCID=040a2010
DTITLE=Thompson, Hank - CB90134
DYEAR=1900
DGENRE=Karaoke
TTITLE0=HANK THOMPSON - Wild Side Of Life, The
TTITLE1=HANK  THOMPSON - Humpty Dumpty Heart
TTITLE2=HANK THOMPSON - Wake Up Irene
TTITLE3=HANK THOMPSON - New Green Light, The
TTITLE4=HANK THOMPSON - Squaws Along The Yukon
TTITLE5=HANK THOMPSON - Waiting In The Lobby Of Your Heart
TTITLE6=HANK THOMPSON - Rub A Dub Dub
TTITLE7=HANK THOMPSON - Blackboard Of My Heart, The
TTITLE8=HANK THOMPSON - I've Come Awful Close
TTITLE9=HANK THOMPSON - Six Pack To Go, A
TTITLE10=HANK THOMPSON - Honky Tonk Girl
TTITLE11=HANK THOMPSON - On Tap, In The Can, Or In The Bottle
TTITLE12=HANK THOMPSON - Smoky The Bar
TTITLE13=HANK THOMPSON - Older The Violin The Sweater The Music, The
TTITLE14=HANK THOMPSON - Who Left The Door To Heaven Open
TTITLE15=HANK THOMPSON - Data
EXTD=
EXTT0=
EXTT1=
EXTT2=
EXTT3=
EXTT4=
EXTT5=
EXTT6=
EXTT7=
EXTT8=
EXTT9=
EXTT10=
EXTT11=
EXTT12=
EXTT13=
EXTT14=
EXTT15=
PLAYORDER=
